<svg width="20" height="20" viewBox="0 0 20 20" fill="none" xmlns="http://www.w3.org/2000/svg">
<path d="M9.16669 14.1667H10.8334V10.8333H14.1667V9.16667H10.8334V5.83333H9.16669V9.16667H5.83335V10.8333H9.16669V14.1667ZM10 18.3333C8.84724 18.3333 7.76391 18.1144 6.75002 17.6767C5.73613 17.2394 4.85419 16.6458 4.10419 15.8958C3.35419 15.1458 2.76058 14.2639 2.32335 13.25C1.88558 12.2361 1.66669 11.1528 1.66669 10C1.66669 8.84722 1.88558 7.76389 2.32335 6.75C2.76058 5.73611 3.35419 4.85417 4.10419 4.10417C4.85419 3.35417 5.73613 2.76028 6.75002 2.3225C7.76391 1.88528 8.84724 1.66667 10 1.66667C11.1528 1.66667 12.2361 1.88528 13.25 2.3225C14.2639 2.76028 15.1459 3.35417 15.8959 4.10417C16.6459 4.85417 17.2395 5.73611 17.6767 6.75C18.1145 7.76389 18.3334 8.84722 18.3334 10C18.3334 11.1528 18.1145 12.2361 17.6767 13.25C17.2395 14.2639 16.6459 15.1458 15.8959 15.8958C15.1459 16.6458 14.2639 17.2394 13.25 17.6767C12.2361 18.1144 11.1528 18.3333 10 18.3333ZM10 16.6667C11.8611 16.6667 13.4375 16.0208 14.7292 14.7292C16.0209 13.4375 16.6667 11.8611 16.6667 10C16.6667 8.13889 16.0209 6.5625 14.7292 5.27083C13.4375 3.97917 11.8611 3.33333 10 3.33333C8.13891 3.33333 6.56252 3.97917 5.27085 5.27083C3.97919 6.5625 3.33335 8.13889 3.33335 10C3.33335 11.8611 3.97919 13.4375 5.27085 14.7292C6.56252 16.0208 8.13891 16.6667 10 16.6667Z" fill="#00F963"/>
</svg>
